# This file uses centimeters as units for non-parametric coordinates.

g default
v -0.500000 -0.500000 0.000000
v 0.500000 -0.500000 0.000000
v -0.500000 0.500000 0.500000
v 0.500000 0.500000 0.500000
v -0.500000 0.500000 -0.500000
v 0.500000 0.500000 -0.500000
vt 0.250000 0.000000
vt 0.750000 0.000000
vt 0.375000 0.250000
vt 0.625000 0.250000
vt 0.875000 0.250000
vt 0.125000 0.250000
vn 1.000000 -0.000000 0.000000
vn 1.000000 -0.000000 0.000000
vn 1.000000 -0.000000 0.000000
vn -1.000000 0.000000 0.000000
vn -1.000000 0.000000 0.000000
vn -1.000000 0.000000 0.000000
s off
g cube_A
f 2/2/1 6/5/2 4/4/3
f 1/1/4 3/3/5 5/6/6
