# This file uses centimeters as units for non-parametric coordinates.

g default
v 1.000795 0.000000 0.160750
v 1.014059 0.000000 0.050748
v 1.015267 0.000000 -0.060044
v 1.004407 0.000000 -0.170310
v 0.981607 0.000000 -0.278738
v 0.947138 0.000000 -0.384039
v 0.901411 0.000000 -0.484962
v 0.844968 0.000000 -0.580306
v 0.778481 0.000000 -0.668940
v 0.702739 0.000000 -0.749808
v 0.618644 0.000000 -0.821950
v 0.527195 0.000000 -0.884508
v 0.429479 0.000000 -0.936738
v 0.326658 0.000000 -0.978020
v 0.219953 0.000000 -1.007862
v 0.110634 0.000000 -1.025911
v 0.000000 0.000000 -1.031951
v -0.110634 0.000000 -1.025911
v -0.219953 0.000000 -1.007863
v -0.326658 0.000000 -0.978020
v -0.429479 0.000000 -0.936738
v -0.527195 0.000000 -0.884508
v -0.618644 0.000000 -0.821950
v -0.702739 0.000000 -0.749808
v -0.778481 0.000000 -0.668940
v -0.844968 0.000000 -0.580307
v -0.901411 0.000000 -0.484962
v -0.947138 0.000000 -0.384039
v -0.981607 0.000000 -0.278738
v -1.004407 0.000000 -0.170310
v -1.015267 0.000000 -0.060044
v -1.014059 0.000000 0.050748
v -1.000795 0.000000 0.160750
v 0.803834 0.000000 0.126021
v 0.814487 0.000000 0.037667
v 0.815458 0.000000 -0.051321
v 0.806735 0.000000 -0.139885
v 0.788422 0.000000 -0.226974
v 0.760737 0.000000 -0.311551
v 0.724009 0.000000 -0.392612
v 0.678674 0.000000 -0.469193
v 0.625272 0.000000 -0.540382
v 0.564437 0.000000 -0.605335
v 0.496892 0.000000 -0.663279
v 0.423441 0.000000 -0.713525
v 0.344956 0.000000 -0.755476
v 0.262370 0.000000 -0.788634
v 0.176665 0.000000 -0.812603
v 0.088861 0.000000 -0.827100
v 0.000000 0.000000 -0.831951
v -0.088861 0.000000 -0.827100
v -0.176665 0.000000 -0.812603
v -0.262370 0.000000 -0.788634
v -0.344956 0.000000 -0.755476
v -0.423441 0.000000 -0.713525
v -0.496892 0.000000 -0.663279
v -0.564437 0.000000 -0.605335
v -0.625272 0.000000 -0.540382
v -0.678674 0.000000 -0.469192
v -0.724009 0.000000 -0.392612
v -0.760737 0.000000 -0.311551
v -0.788422 0.000000 -0.226974
v -0.806735 0.000000 -0.139885
v -0.815458 0.000000 -0.051321
v -0.814487 0.000000 0.037667
v -0.803834 0.000000 0.126021
v 0.606872 0.000000 0.091291
v 0.614915 0.000000 0.024587
v 0.615648 0.000000 -0.042597
v 0.609062 0.000000 -0.109461
v 0.595237 0.000000 -0.175210
v 0.574335 0.000000 -0.239064
v 0.546607 0.000000 -0.300262
v 0.512380 0.000000 -0.358078
v 0.472063 0.000000 -0.411825
v 0.426134 0.000000 -0.460862
v 0.375140 0.000000 -0.504609
v 0.319686 0.000000 -0.542543
v 0.260432 0.000000 -0.574215
v 0.198082 0.000000 -0.599248
v 0.133378 0.000000 -0.617344
v 0.067088 0.000000 -0.628289
v 0.000000 0.000000 -0.631951
v -0.067088 0.000000 -0.628289
v -0.133378 0.000000 -0.617344
v -0.198082 0.000000 -0.599248
v -0.260432 0.000000 -0.574215
v -0.319686 0.000000 -0.542543
v -0.375140 0.000000 -0.504609
v -0.426134 0.000000 -0.460862
v -0.472063 0.000000 -0.411825
v -0.512380 0.000000 -0.358078
v -0.546607 0.000000 -0.300262
v -0.574335 0.000000 -0.239064
v -0.595237 0.000000 -0.175210
v -0.609062 0.000000 -0.109461
v -0.615648 0.000000 -0.042597
v -0.614915 0.000000 0.024587
v -0.606872 0.000000 0.091291
vt 0.000000 0.000000
vt 0.031250 0.000000
vt 0.062500 0.000000
vt 0.093750 0.000000
vt 0.125000 0.000000
vt 0.156250 0.000000
vt 0.187500 0.000000
vt 0.218750 0.000000
vt 0.250000 0.000000
vt 0.281250 0.000000
vt 0.312500 0.000000
vt 0.343750 0.000000
vt 0.375000 0.000000
vt 0.406250 0.000000
vt 0.437500 0.000000
vt 0.468750 0.000000
vt 0.500000 0.000000
vt 0.531250 0.000000
vt 0.562500 0.000000
vt 0.593750 0.000000
vt 0.625000 0.000000
vt 0.656250 0.000000
vt 0.687500 0.000000
vt 0.718750 0.000000
vt 0.750000 0.000000
vt 0.781250 0.000000
vt 0.812500 0.000000
vt 0.843750 0.000000
vt 0.875000 0.000000
vt 0.906250 0.000000
vt 0.937500 0.000000
vt 0.968750 0.000000
vt 1.000000 0.000000
vt 0.000000 0.500000
vt 0.031250 0.500000
vt 0.062500 0.500000
vt 0.093750 0.500000
vt 0.125000 0.500000
vt 0.156250 0.500000
vt 0.187500 0.500000
vt 0.218750 0.500000
vt 0.250000 0.500000
vt 0.281250 0.500000
vt 0.312500 0.500000
vt 0.343750 0.500000
vt 0.375000 0.500000
vt 0.406250 0.500000
vt 0.437500 0.500000
vt 0.468750 0.500000
vt 0.500000 0.500000
vt 0.531250 0.500000
vt 0.562500 0.500000
vt 0.593750 0.500000
vt 0.625000 0.500000
vt 0.656250 0.500000
vt 0.687500 0.500000
vt 0.718750 0.500000
vt 0.750000 0.500000
vt 0.781250 0.500000
vt 0.812500 0.500000
vt 0.843750 0.500000
vt 0.875000 0.500000
vt 0.906250 0.500000
vt 0.937500 0.500000
vt 0.968750 0.500000
vt 1.000000 0.500000
vt 0.000000 1.000000
vt 0.031250 1.000000
vt 0.062500 1.000000
vt 0.093750 1.000000
vt 0.125000 1.000000
vt 0.156250 1.000000
vt 0.187500 1.000000
vt 0.218750 1.000000
vt 0.250000 1.000000
vt 0.281250 1.000000
vt 0.312500 1.000000
vt 0.343750 1.000000
vt 0.375000 1.000000
vt 0.406250 1.000000
vt 0.437500 1.000000
vt 0.468750 1.000000
vt 0.500000 1.000000
vt 0.531250 1.000000
vt 0.562500 1.000000
vt 0.593750 1.000000
vt 0.625000 1.000000
vt 0.656250 1.000000
vt 0.687500 1.000000
vt 0.718750 1.000000
vt 0.750000 1.000000
vt 0.781250 1.000000
vt 0.812500 1.000000
vt 0.843750 1.000000
vt 0.875000 1.000000
vt 0.906250 1.000000
vt 0.937500 1.000000
vt 0.968750 1.000000
vt 1.000000 1.000000
vn 0.000000 1.000000 0.000000
vn 0.000000 1.000000 0.000000
vn 0.000000 1.000000 0.000000
vn 0.000000 1.000000 0.000000
vn 0.000000 1.000000 0.000000
vn 0.000000 1.000000 0.000000
vn 0.000000 1.000000 0.000000
vn 0.000000 1.000000 0.000000
vn 0.000000 1.000000 0.000000
vn 0.000000 1.000000 0.000000
vn 0.000000 1.000000 0.000000
vn 0.000000 1.000000 0.000000
vn 0.000000 1.000000 0.000000
vn 0.000000 1.000000 0.000000
vn 0.000000 1.000000 0.000000
vn 0.000000 1.000000 0.000000
vn 0.000000 1.000000 0.000000
vn 0.000000 1.000000 0.000000
vn 0.000000 1.000000 0.000000
vn 0.000000 1.000000 0.000000
vn 0.000000 1.000000 0.000000
vn 0.000000 1.000000 0.000000
vn 0.000000 1.000000 0.000000
vn 0.000000 1.000000 0.000000
vn 0.000000 1.000000 0.000000
vn 0.000000 1.000000 0.000000
vn 0.000000 1.000000 0.000000
vn 0.000000 1.000000 0.000000
vn 0.000000 1.000000 0.000000
vn 0.000000 1.000000 0.000000
vn 0.000000 1.000000 0.000000
vn 0.000000 1.000000 0.000000
vn 0.000000 1.000000 0.000000
vn 0.000000 1.000000 0.000000
vn 0.000000 1.000000 0.000000
vn 0.000000 1.000000 0.000000
vn 0.000000 1.000000 0.000000
vn 0.000000 1.000000 0.000000
vn 0.000000 1.000000 0.000000
vn 0.000000 1.000000 0.000000
vn 0.000000 1.000000 0.000000
vn 0.000000 1.000000 0.000000
vn 0.000000 1.000000 0.000000
vn 0.000000 1.000000 0.000000
vn 0.000000 1.000000 0.000000
vn 0.000000 1.000000 0.000000
vn 0.000000 1.000000 0.000000
vn 0.000000 1.000000 0.000000
vn 0.000000 1.000000 0.000000
vn 0.000000 1.000000 0.000000
vn 0.000000 1.000000 0.000000
vn 0.000000 1.000000 0.000000
vn 0.000000 1.000000 0.000000
vn 0.000000 1.000000 0.000000
vn 0.000000 1.000000 0.000000
vn 0.000000 1.000000 0.000000
vn 0.000000 1.000000 0.000000
vn 0.000000 1.000000 0.000000
vn 0.000000 1.000000 0.000000
vn 0.000000 1.000000 0.000000
vn 0.000000 1.000000 0.000000
vn 0.000000 1.000000 0.000000
vn 0.000000 1.000000 0.000000
vn 0.000000 1.000000 0.000000
vn 0.000000 1.000000 0.000000
vn 0.000000 1.000000 0.000000
vn 0.000000 1.000000 0.000000
vn 0.000000 1.000000 0.000000
vn 0.000000 1.000000 0.000000
vn 0.000000 1.000000 0.000000
vn 0.000000 1.000000 0.000000
vn 0.000000 1.000000 0.000000
vn 0.000000 1.000000 0.000000
vn 0.000000 1.000000 0.000000
vn 0.000000 1.000000 0.000000
vn 0.000000 1.000000 0.000000
vn 0.000000 1.000000 0.000000
vn 0.000000 1.000000 0.000000
vn 0.000000 1.000000 0.000000
vn 0.000000 1.000000 0.000000
vn 0.000000 1.000000 0.000000
vn 0.000000 1.000000 0.000000
vn 0.000000 1.000000 0.000000
vn 0.000000 1.000000 0.000000
vn 0.000000 1.000000 0.000000
vn 0.000000 1.000000 0.000000
vn 0.000000 1.000000 0.000000
vn 0.000000 1.000000 0.000000
vn 0.000000 1.000000 0.000000
vn 0.000000 1.000000 0.000000
vn 0.000000 1.000000 0.000000
vn 0.000000 1.000000 0.000000
vn 0.000000 1.000000 0.000000
vn 0.000000 1.000000 0.000000
vn 0.000000 1.000000 0.000000
vn 0.000000 1.000000 0.000000
vn 0.000000 1.000000 0.000000
vn 0.000000 1.000000 0.000000
vn 0.000000 1.000000 0.000000
s 1
g plane_arc_B
f 1/1/1 2/2/2 35/35/3 34/34/4
f 2/2/2 3/3/5 36/36/6 35/35/3
f 3/3/5 4/4/7 37/37/8 36/36/6
f 4/4/7 5/5/9 38/38/10 37/37/8
f 5/5/9 6/6/11 39/39/12 38/38/10
f 6/6/11 7/7/13 40/40/14 39/39/12
f 7/7/13 8/8/15 41/41/16 40/40/14
f 8/8/15 9/9/17 42/42/18 41/41/16
f 9/9/17 10/10/19 43/43/20 42/42/18
f 10/10/19 11/11/21 44/44/22 43/43/20
f 11/11/21 12/12/23 45/45/24 44/44/22
f 12/12/23 13/13/25 46/46/26 45/45/24
f 13/13/25 14/14/27 47/47/28 46/46/26
f 14/14/27 15/15/29 48/48/30 47/47/28
f 15/15/29 16/16/31 49/49/32 48/48/30
f 16/16/31 17/17/33 50/50/34 49/49/32
f 17/17/33 18/18/35 51/51/36 50/50/34
f 18/18/35 19/19/37 52/52/38 51/51/36
f 19/19/37 20/20/39 53/53/40 52/52/38
f 20/20/39 21/21/41 54/54/42 53/53/40
f 21/21/41 22/22/43 55/55/44 54/54/42
f 22/22/43 23/23/45 56/56/46 55/55/44
f 23/23/45 24/24/47 57/57/48 56/56/46
f 24/24/47 25/25/49 58/58/50 57/57/48
f 25/25/49 26/26/51 59/59/52 58/58/50
f 26/26/51 27/27/53 60/60/54 59/59/52
f 27/27/53 28/28/55 61/61/56 60/60/54
f 28/28/55 29/29/57 62/62/58 61/61/56
f 29/29/57 30/30/59 63/63/60 62/62/58
f 30/30/59 31/31/61 64/64/62 63/63/60
f 31/31/61 32/32/63 65/65/64 64/64/62
f 32/32/63 33/33/65 66/66/66 65/65/64
f 34/34/4 35/35/3 68/68/67 67/67/68
f 35/35/3 36/36/6 69/69/69 68/68/67
f 36/36/6 37/37/8 70/70/70 69/69/69
f 37/37/8 38/38/10 71/71/71 70/70/70
f 38/38/10 39/39/12 72/72/72 71/71/71
f 39/39/12 40/40/14 73/73/73 72/72/72
f 40/40/14 41/41/16 74/74/74 73/73/73
f 41/41/16 42/42/18 75/75/75 74/74/74
f 42/42/18 43/43/20 76/76/76 75/75/75
f 43/43/20 44/44/22 77/77/77 76/76/76
f 44/44/22 45/45/24 78/78/78 77/77/77
f 45/45/24 46/46/26 79/79/79 78/78/78
f 46/46/26 47/47/28 80/80/80 79/79/79
f 47/47/28 48/48/30 81/81/81 80/80/80
f 48/48/30 49/49/32 82/82/82 81/81/81
f 49/49/32 50/50/34 83/83/83 82/82/82
f 50/50/34 51/51/36 84/84/84 83/83/83
f 51/51/36 52/52/38 85/85/85 84/84/84
f 52/52/38 53/53/40 86/86/86 85/85/85
f 53/53/40 54/54/42 87/87/87 86/86/86
f 54/54/42 55/55/44 88/88/88 87/87/87
f 55/55/44 56/56/46 89/89/89 88/88/88
f 56/56/46 57/57/48 90/90/90 89/89/89
f 57/57/48 58/58/50 91/91/91 90/90/90
f 58/58/50 59/59/52 92/92/92 91/91/91
f 59/59/52 60/60/54 93/93/93 92/92/92
f 60/60/54 61/61/56 94/94/94 93/93/93
f 61/61/56 62/62/58 95/95/95 94/94/94
f 62/62/58 63/63/60 96/96/96 95/95/95
f 63/63/60 64/64/62 97/97/97 96/96/96
f 64/64/62 65/65/64 98/98/98 97/97/97
f 65/65/64 66/66/66 99/99/99 98/98/98
